<svg width="18" height="18" viewBox="0 0 18 18" fill="none" xmlns="http://www.w3.org/2000/svg">
<path d="M9 1.5C10.2426 1.5 11.25 2.50736 11.25 3.75V8.25H7.5C7.08579 8.25 6.75 8.58579 6.75 9C6.75 9.41421 7.08579 9.75 7.5 9.75H11.25V14.25C11.25 15.4926 10.2426 16.5 9 16.5H4.5C3.25736 16.5 2.25 15.4926 2.25 14.25V3.75C2.25 2.50736 3.25736 1.5 4.5 1.5H9Z" fill="#6F767E"/>
<path d="M11.25 9.75L13.5643 9.75L12.2197 11.0947C11.9268 11.3876 11.9268 11.8624 12.2197 12.1553C12.5126 12.4482 12.9874 12.4482 13.2803 12.1553L15.375 10.0607C15.9608 9.47487 15.9608 8.52513 15.375 7.93934L13.2803 5.84467C12.9874 5.55178 12.5126 5.55178 12.2197 5.84467C11.9268 6.13756 11.9268 6.61244 12.2197 6.90533L13.5643 8.25L11.25 8.25V9.75Z" fill="#6F767E"/>
</svg>
