<svg width="18" height="18" viewBox="0 0 18 18" fill="none" xmlns="http://www.w3.org/2000/svg">
<g clip-path="url(#clip0_330_3872)">
<path d="M9 17.25C4.4475 17.25 0.75 13.5525 0.75 9C0.75 4.4475 4.4475 0.75 9 0.75C13.5525 0.75 17.25 4.4475 17.25 9C17.25 13.5525 13.5525 17.25 9 17.25ZM9 2.25C5.28 2.25 2.25 5.28 2.25 9C2.25 12.72 5.28 15.75 9 15.75C12.72 15.75 15.75 12.72 15.75 9C15.75 5.28 12.72 2.25 9 2.25Z" fill="black"/>
<path d="M12.0001 12.75C11.7751 12.75 11.5501 12.645 11.4001 12.45C11.3776 12.4275 10.4476 11.25 9.00005 11.25C7.53755 11.25 6.60755 12.4425 6.60005 12.45C6.35255 12.78 5.88005 12.84 5.55005 12.5925C5.22005 12.345 5.15255 11.88 5.40005 11.55C5.45255 11.475 6.77255 9.75 9.00005 9.75C11.2276 9.75 12.5476 11.475 12.6001 11.55C12.8476 11.88 12.7801 12.3525 12.4501 12.6C12.3151 12.705 12.1576 12.75 12.0001 12.75Z" fill="black"/>
<path d="M6.75745 7.5C6.34495 7.5 6.00745 7.1625 6.00745 6.75C6.00745 6.3375 6.33745 6 6.74995 6H6.75745C7.16995 6 7.50745 6.3375 7.50745 6.75C7.50745 7.1625 7.16995 7.5 6.75745 7.5Z" fill="black"/>
<path d="M11.2574 7.5C10.8449 7.5 10.5074 7.1625 10.5074 6.75C10.5074 6.3375 10.8374 6 11.2499 6H11.2574C11.6699 6 12.0074 6.3375 12.0074 6.75C12.0074 7.1625 11.6699 7.5 11.2574 7.5Z" fill="black"/>
</g>
<defs>
<clipPath id="clip0_330_3872">
<rect width="18" height="18" fill="white"/>
</clipPath>
</defs>
</svg>
