<svg width="18" height="18" viewBox="0 0 18 18" fill="none" xmlns="http://www.w3.org/2000/svg">
<g clip-path="url(#clip0_330_3873)">
<path fill-rule="evenodd" clip-rule="evenodd" d="M9.58151 2.06304C10.4302 1.24333 11.5669 0.789752 12.7468 0.800005C13.9267 0.810258 15.0554 1.28352 15.8897 2.11785C16.724 2.95219 17.1973 4.08085 17.2075 5.26073C17.2178 6.44062 16.7642 7.57733 15.9445 8.42604L15.9354 8.43533L13.6855 10.6852C13.2293 11.1416 12.6803 11.4945 12.0757 11.72C11.4711 11.9456 10.8251 12.0384 10.1815 11.9923C9.53783 11.9462 8.91164 11.7623 8.34537 11.4529C7.77909 11.1435 7.28598 10.716 6.89947 10.1992C6.65137 9.86755 6.71912 9.39754 7.05081 9.14943C7.3825 8.90133 7.85251 8.96908 8.10062 9.30077C8.35829 9.64525 8.68703 9.93028 9.06455 10.1365C9.44206 10.3428 9.85952 10.4654 10.2886 10.4962C10.7177 10.5269 11.1484 10.465 11.5514 10.3146C11.9545 10.1643 12.3205 9.92901 12.6246 9.62477L12.6247 9.62467L14.8699 7.37954C15.4136 6.81421 15.7144 6.05831 15.7076 5.27377C15.7008 4.48718 15.3853 3.73474 14.829 3.17851C14.2728 2.62229 13.5204 2.30678 12.7338 2.29995C11.9489 2.29313 11.1927 2.59418 10.6273 3.13841L9.34133 4.41688C9.04758 4.70892 8.57271 4.70753 8.28067 4.41379C7.98863 4.12004 7.99002 3.64517 8.28376 3.35313L9.57376 2.07063L9.58151 2.06304Z" fill="black"/>
<path fill-rule="evenodd" clip-rule="evenodd" d="M5.92439 6.27995C6.52897 6.05442 7.17499 5.96156 7.81862 6.00765C8.46224 6.05375 9.08843 6.23772 9.65471 6.54711C10.221 6.85649 10.7141 7.28404 11.1006 7.80075C11.3487 8.13244 11.2809 8.60245 10.9493 8.85056C10.6176 9.09866 10.1476 9.03091 9.89945 8.69922C9.64178 8.35474 9.31304 8.06971 8.93552 7.86346C8.55801 7.6572 8.14055 7.53455 7.71146 7.50382C7.28238 7.47309 6.8517 7.535 6.44865 7.68535C6.04559 7.8357 5.67959 8.07098 5.37545 8.37522L3.13022 10.6205C2.58644 11.1858 2.28565 11.9417 2.29247 12.7262C2.29931 13.5128 2.61481 14.2653 3.17104 14.8215C3.72726 15.3777 4.4797 15.6932 5.26629 15.7C6.05082 15.7069 6.80672 15.4061 7.37205 14.8623L8.6497 13.5847C8.94259 13.2918 9.41746 13.2918 9.71036 13.5847C10.0033 13.8775 10.0033 14.3524 9.71036 14.6453L8.42786 15.9278L8.41856 15.937C7.56985 16.7567 6.43314 17.2102 5.25326 17.2C4.07337 17.1897 2.94471 16.7165 2.11038 15.8821C1.27604 15.0478 0.802781 13.9191 0.792529 12.7393C0.782276 11.5594 1.23585 10.4227 2.05556 9.57395L2.0647 9.56466L4.3146 7.31475C4.31457 7.31478 4.31463 7.31472 4.3146 7.31475C4.77078 6.85844 5.31985 6.50546 5.92439 6.27995Z" fill="black"/>
</g>
<defs>
<clipPath id="clip0_330_3873">
<rect width="18" height="18" fill="white"/>
</clipPath>
</defs>
</svg>
