<svg width="24" height="24" viewBox="0 0 24 24" fill="none" xmlns="http://www.w3.org/2000/svg">
<g clip-path="url(#clip0_337_4330)">
<path fill-rule="evenodd" clip-rule="evenodd" d="M0.289998 0.300007C0.679998 -0.0899927 1.31 -0.0899927 1.7 0.300007L23.7 22.3C24.09 22.69 24.09 23.32 23.7 23.71C23.31 24.1 22.68 24.1 22.29 23.71L0.289998 1.71001C-0.100002 1.32001 -0.100002 0.690007 0.289998 0.300007Z" fill="#808191"/>
<path d="M12 16C11.48 16 10.96 15.9 10.47 15.69C9.74 15.39 9.12 14.88 8.68 14.22C8.23 13.57 8 12.8 8 12.01V9.00001C8 8.60001 8.24 8.23001 8.62 8.08001C9 7.93001 9.42 8.01001 9.71 8.30001L14.83 13.42C15.22 13.81 15.22 14.44 14.83 14.83C14.27 15.39 13.56 15.77 12.78 15.92C12.52 15.98 12.26 16 12 16ZM10 11.42V12C10 12.4 10.12 12.78 10.34 13.11C10.56 13.44 10.87 13.69 11.24 13.85C11.6 14 12 14.04 12.39 13.96C12.43 13.95 12.47 13.94 12.52 13.93L10 11.42ZM15 10.34C14.45 10.34 14 9.89001 14 9.34001V4.00001C14 3.50001 13.82 3.03001 13.48 2.66001C13.15 2.29001 12.69 2.06001 12.2 2.01001C11.71 1.96001 11.21 2.09001 10.81 2.39001C10.41 2.68001 10.14 3.12001 10.04 3.60001C9.93 4.14001 9.4 4.49001 8.86 4.38001C8.32 4.27001 7.97 3.75001 8.08 3.21001C8.28 2.24001 8.83 1.38001 9.63 0.790008C10.43 0.200008 11.42 -0.0699916 12.41 0.0300084C13.4 0.130008 14.31 0.590008 14.98 1.33001C15.63 2.06001 16 3.01001 16 4.01001V9.35001C16 9.90001 15.55 10.34 15 10.34Z" fill="#808191"/>
<path fill-rule="evenodd" clip-rule="evenodd" d="M4.99998 9C5.54998 9 5.99998 9.45 5.99998 10V12.01C5.98998 13.21 6.33998 14.38 6.99998 15.37C7.65998 16.36 8.60998 17.14 9.70998 17.6C10.82 18.06 12.03 18.17 13.2 17.93C14.37 17.69 15.44 17.11 16.28 16.25C16.67 15.86 17.3 15.85 17.69 16.24C18.08 16.63 18.09 17.26 17.7 17.65C16.58 18.79 15.15 19.57 13.59 19.89C12.03 20.21 10.41 20.06 8.92998 19.45C7.45998 18.84 6.19998 17.81 5.31998 16.48C4.44998 15.15 3.98998 13.59 3.99998 12V10C3.99998 9.45 4.44998 9 4.99998 9ZM19 9C19.55 9 20 9.45 20 10V12C20 12.47 19.96 12.94 19.87 13.41C19.77 13.95 19.25 14.32 18.71 14.22C18.17 14.12 17.8 13.6 17.9 13.06C17.97 12.71 18 12.36 18 12V10C18 9.45 18.45 9 19 9Z" fill="#808191"/>
<path fill-rule="evenodd" clip-rule="evenodd" d="M12 18C12.55 18 13 18.45 13 19V23C13 23.55 12.55 24 12 24C11.45 24 11 23.55 11 23V19C11 18.45 11.45 18 12 18Z" fill="#808191"/>
<path fill-rule="evenodd" clip-rule="evenodd" d="M7 23C7 22.45 7.45 22 8 22H16C16.55 22 17 22.45 17 23C17 23.55 16.55 24 16 24H8C7.45 24 7 23.56 7 23Z" fill="#808191"/>
</g>
<defs>
<clipPath id="clip0_337_4330">
<rect width="24" height="24" fill="white"/>
</clipPath>
</defs>
</svg>
