<svg width="14" height="14" viewBox="0 0 14 14" fill="none" xmlns="http://www.w3.org/2000/svg">
<path fill-rule="evenodd" clip-rule="evenodd" d="M9.93227 8.05787C10.4478 7.43998 10.7554 6.6579 10.7554 5.80353C10.7554 3.81097 9.07406 2.19568 7 2.19568C4.92594 2.19568 3.24459 3.81097 3.24459 5.80353C3.24459 6.65782 3.5521 7.43984 4.06759 8.0577L4.0713 8.06214C4.18044 8.19277 4.28148 8.3303 4.38646 8.46401C4.56878 8.69623 4.82588 9.02235 5.1246 9.39742C5.68127 10.0964 6.37665 10.958 7.00044 11.6977C7.62619 10.9564 8.32316 10.0934 8.88092 9.39358C9.18018 9.0181 9.43768 8.69166 9.62027 8.45923C9.72472 8.32628 9.82383 8.18782 9.93227 8.05787ZM10.9052 8.80713C10.9052 8.80713 10.9041 8.80849 10.9034 8.80945C10.8715 8.85039 10.5788 9.22602 10.1548 9.761C9.52574 10.5547 8.60746 11.699 7.82235 12.6216C7.39288 13.1263 6.60728 13.1261 6.17806 12.6212C4.83618 11.0428 3.10069 8.81058 3.10069 8.81058L3.09664 8.80573C2.41045 7.98337 2 6.9395 2 5.80353C2 3.15061 4.23858 1 7 1C9.76142 1 12 3.15061 12 5.80353C12 6.51032 11.8411 7.18146 11.5558 7.78578C11.3831 8.15136 11.1642 8.49249 10.9062 8.80226L10.9044 8.80443L10.9034 8.80573H10.9062L10.9052 8.80713Z" fill="#808191"/>
<path fill-rule="evenodd" clip-rule="evenodd" d="M7 6.41665C7.32217 6.41665 7.58333 6.15548 7.58333 5.83331C7.58333 5.51115 7.32217 5.24998 7 5.24998C6.67783 5.24998 6.41667 5.51115 6.41667 5.83331C6.41667 6.15548 6.67783 6.41665 7 6.41665ZM8.75 5.83331C8.75 6.79981 7.9665 7.58331 7 7.58331C6.0335 7.58331 5.25 6.79981 5.25 5.83331C5.25 4.86681 6.0335 4.08331 7 4.08331C7.9665 4.08331 8.75 4.86681 8.75 5.83331Z" fill="#808191"/>
</svg>
