<svg width="18" height="18" viewBox="0 0 18 18" fill="none" xmlns="http://www.w3.org/2000/svg">
<path d="M18 3.45001C17.325 3.75001 16.65 3.97501 15.9 4.05001C16.65 3.60001 17.25 2.85001 17.55 2.02501C16.8 2.47501 16.05 2.77501 15.225 2.92501C14.55 2.17501 13.575 1.72501 12.525 1.72501C10.5 1.72501 8.85 3.37501 8.85 5.40001C8.85 5.70001 8.85 6.00001 8.925 6.22501C5.775 6.07501 3.075 4.57501 1.275 2.32501C0.9 2.92501 0.75 3.52501 0.75 4.20001C0.75 5.47501 1.425 6.60001 2.4 7.27501C1.8 7.27501 1.2 7.12501 0.75 6.82501C0.75 6.82501 0.75 6.82501 0.75 6.90001C0.75 8.70001 2.025 10.2 3.675 10.5C3.375 10.575 3.075 10.65 2.7 10.65C2.475 10.65 2.25 10.65 2.025 10.575C2.475 12.075 3.825 13.125 5.475 13.125C4.2 14.1 2.625 14.7 0.9 14.7C0.6 14.7 0.3 14.7 0 14.625C1.65 15.675 3.6 16.275 5.625 16.275C12.45 16.275 16.125 10.65 16.125 5.77501C16.125 5.62501 16.125 5.47501 16.125 5.32501C16.875 4.80001 17.475 4.12501 18 3.45001Z" fill="#6F767E"/>
</svg>
