<svg width="18" height="18" viewBox="0 0 18 18" fill="none" xmlns="http://www.w3.org/2000/svg">
<path fill-rule="evenodd" clip-rule="evenodd" d="M15 4.62803V3.75C15 2.50736 13.9926 1.5 12.75 1.5H3.75C2.50736 1.5 1.5 2.50736 1.5 3.75V14.25C1.5 15.4926 2.50736 16.5 3.75 16.5H14.25C15.4926 16.5 16.5 15.4926 16.5 14.25V6.75C16.5 5.77034 15.8739 4.93691 15 4.62803ZM3 3.75C3 3.33579 3.33579 3 3.75 3H12.75C13.1642 3 13.5 3.33579 13.5 3.75V4.5H3.75C3.33579 4.5 3 4.16421 3 3.75ZM3 5.87197C3.23458 5.95488 3.48702 6 3.75 6H14.25C14.6642 6 15 6.33579 15 6.75V8.25H12.75C11.5074 8.25 10.5 9.25736 10.5 10.5C10.5 11.7426 11.5074 12.75 12.75 12.75H15V14.25C15 14.6642 14.6642 15 14.25 15H3.75C3.33579 15 3 14.6642 3 14.25V5.87197ZM12.75 9.75H15V11.25H12.75C12.3358 11.25 12 10.9142 12 10.5C12 10.0858 12.3358 9.75 12.75 9.75Z" fill="#FCFCFC"/>
</svg>
