<svg width="24" height="24" viewBox="0 0 24 24" fill="none" xmlns="http://www.w3.org/2000/svg">
<path fill-rule="evenodd" clip-rule="evenodd" d="M17.8099 14.3925C18.0441 14.2154 18.2523 14.0038 18.427 13.7633C18.7994 13.2508 19 12.6335 19 12C19 11.3664 18.7994 10.7492 18.427 10.2366C18.2523 9.99607 18.0438 9.78438 17.8096 9.6072C17.7526 9.56409 17.6979 9.51731 17.6462 9.46739C17.5988 9.42162 17.554 9.37322 17.5122 9.32259C17.2476 9.00149 17.1077 8.59076 17.236 8.19576C17.4067 7.6705 17.9781 7.37483 18.459 7.64646C18.6527 7.75587 18.8388 7.87801 19.0159 8.012M19.0159 8.012C19.4063 8.30723 19.7538 8.66022 20.0451 9.06106C20.6657 9.91529 21 10.9441 21 12C21 13.0559 20.6657 14.0847 20.0451 14.9389C19.7538 15.3398 19.4064 15.6927 19.0159 15.988C18.8388 16.122 18.6527 16.2441 18.459 16.3535C17.9781 16.6251 17.4067 16.3295 17.236 15.8042C17.1077 15.4092 17.2476 14.9985 17.5122 14.6774C17.554 14.6267 17.5988 14.5783 17.6462 14.5326C17.6979 14.4827 17.753 14.4356 17.8099 14.3925" fill="#6F767E"/>
<path d="M16 19.5925V4.40755C16 2.68923 13.9762 1.77087 12.683 2.90239L8 7.00001H6C4.34315 7.00001 3 8.34316 3 10V14C3 15.6569 4.34315 17 6 17H8L12.683 21.0976C13.9762 22.2291 16 21.3108 16 19.5925Z" fill="#6F767E"/>
</svg>
