<svg width="18" height="18" viewBox="0 0 18 18" fill="none" xmlns="http://www.w3.org/2000/svg">
<path d="M2.98918 15.8933L6.96665 15.0978C7.11185 15.0688 7.2452 14.9974 7.3499 14.8927L12.3372 9.90534C12.6301 9.61244 12.6301 9.13757 12.3372 8.84468L9.15526 5.6627C8.86237 5.3698 8.38749 5.36981 8.0946 5.6627L3.10726 10.6501C3.00256 10.7548 2.93119 10.8881 2.90215 11.0333L2.10666 15.0108C2.0017 15.5356 2.46439 15.9983 2.98918 15.8933Z" fill="#6F767E"/>
<path d="M15.1443 3.91636L14.0836 2.8557C13.2049 1.97702 11.7803 1.97702 10.9016 2.85569L10.1627 3.59466C9.86979 3.88755 9.86979 4.36243 10.1627 4.65532L13.3447 7.8373C13.6376 8.13019 14.1124 8.13019 14.4053 7.8373L15.1443 7.09834C16.023 6.21966 16.023 4.79504 15.1443 3.91636Z" fill="#6F767E"/>
</svg>
