<svg width="18" height="18" viewBox="0 0 18 18" fill="none" xmlns="http://www.w3.org/2000/svg">
<path fill-rule="evenodd" clip-rule="evenodd" d="M2.25 1.5C2.66421 1.5 3 1.83579 3 2.25V14.25C3 14.6642 3.33579 15 3.75 15H15.75C16.1642 15 16.5 15.3358 16.5 15.75C16.5 16.1642 16.1642 16.5 15.75 16.5H3.75C2.50736 16.5 1.5 15.4926 1.5 14.25V2.25C1.5 1.83579 1.83579 1.5 2.25 1.5Z" fill="#6F767E"/>
<path fill-rule="evenodd" clip-rule="evenodd" d="M5.25 6C5.66421 6 6 6.33579 6 6.75V12.75C6 13.1642 5.66421 13.5 5.25 13.5C4.83579 13.5 4.5 13.1642 4.5 12.75V6.75C4.5 6.33579 4.83579 6 5.25 6Z" fill="#6F767E"/>
<path fill-rule="evenodd" clip-rule="evenodd" d="M8.25 10.5C8.66421 10.5 9 10.8358 9 11.25V12.75C9 13.1642 8.66421 13.5 8.25 13.5C7.83579 13.5 7.5 13.1642 7.5 12.75V11.25C7.5 10.8358 7.83579 10.5 8.25 10.5Z" fill="#6F767E"/>
<path fill-rule="evenodd" clip-rule="evenodd" d="M11.25 3C11.6642 3 12 3.33579 12 3.75V12.75C12 13.1642 11.6642 13.5 11.25 13.5C10.8358 13.5 10.5 13.1642 10.5 12.75V3.75C10.5 3.33579 10.8358 3 11.25 3Z" fill="#6F767E"/>
<path fill-rule="evenodd" clip-rule="evenodd" d="M14.25 7.5C14.6642 7.5 15 7.83579 15 8.25V12.75C15 13.1642 14.6642 13.5 14.25 13.5C13.8358 13.5 13.5 13.1642 13.5 12.75V8.25C13.5 7.83579 13.8358 7.5 14.25 7.5Z" fill="#6F767E"/>
</svg>
