<svg width="18" height="18" viewBox="0 0 18 18" fill="none" xmlns="http://www.w3.org/2000/svg">
<path fill-rule="evenodd" clip-rule="evenodd" d="M1.5 9C1.5 6.10051 3.85051 3.75 6.75 3.75H11.25C14.1495 3.75 16.5 6.10051 16.5 9C16.5 11.8995 14.1495 14.25 11.25 14.25H6.75C3.8505 14.25 1.5 11.8995 1.5 9ZM6.75 5.25C4.67893 5.25 3 6.92893 3 9C3 11.0711 4.67893 12.75 6.75 12.75H11.25C13.3211 12.75 15 11.0711 15 9C15 6.92893 13.3211 5.25 11.25 5.25H6.75Z" fill="#6F767E"/>
<path d="M6.75 6.375C5.30025 6.375 4.125 7.55025 4.125 9C4.125 10.4497 5.30025 11.625 6.75 11.625C8.19975 11.625 9.375 10.4497 9.375 9C9.375 7.55025 8.19975 6.375 6.75 6.375Z" fill="#6F767E"/>
</svg>
