<svg width="18" height="18" viewBox="0 0 18 18" fill="none" xmlns="http://www.w3.org/2000/svg">
<path fill-rule="evenodd" clip-rule="evenodd" d="M16.5 9C16.5 13.1421 13.1421 16.5 9 16.5C4.85786 16.5 1.5 13.1421 1.5 9C1.5 4.85786 4.85786 1.5 9 1.5C13.1421 1.5 16.5 4.85786 16.5 9ZM13.2852 12.3004C13.5312 12.5513 13.5312 12.9488 13.2852 13.1997C12.1963 14.3107 10.6786 15 9.00005 15C7.3214 15 5.80375 14.3106 4.71477 13.1996C4.46884 12.9487 4.46885 12.5512 4.71478 12.3003C5.80376 11.1893 7.32136 10.5 8.99997 10.5C10.6786 10.5 12.1963 11.1894 13.2852 12.3004ZM9 9C10.2426 9 11.25 7.99264 11.25 6.75C11.25 5.50736 10.2426 4.5 9 4.5C7.75736 4.5 6.75 5.50736 6.75 6.75C6.75 7.99264 7.75736 9 9 9Z" fill="#6F767E"/>
</svg>
